<svg xmlns="http://www.w3.org/2000/svg" width="107" height="45" viewBox="0 0 107 45">
  <g id="Group_172" data-name="Group 172" transform="translate(-310.564 -1272.894)">
    <g id="Ellipse_20" data-name="Ellipse 20" transform="translate(310.564 1272.894)" fill="none" stroke="#c59069" stroke-width="1">
      <circle cx="3.5" cy="3.5" r="3.5" stroke="none"/>
      <circle cx="3.5" cy="3.5" r="3" fill="none"/>
    </g>
    <g id="Ellipse_20-2" data-name="Ellipse 20" transform="translate(335.564 1272.894)" fill="none" stroke="#c59069" stroke-width="1">
      <circle cx="3.5" cy="3.5" r="3.5" stroke="none"/>
      <circle cx="3.5" cy="3.5" r="3" fill="none"/>
    </g>
    <g id="Ellipse_20-3" data-name="Ellipse 20" transform="translate(360.564 1272.894)" fill="none" stroke="#c59069" stroke-width="1">
      <circle cx="3.5" cy="3.5" r="3.5" stroke="none"/>
      <circle cx="3.5" cy="3.5" r="3" fill="none"/>
    </g>
    <g id="Ellipse_20-4" data-name="Ellipse 20" transform="translate(385.564 1272.894)" fill="none" stroke="#c59069" stroke-width="1">
      <circle cx="3.5" cy="3.5" r="3.5" stroke="none"/>
      <circle cx="3.5" cy="3.5" r="3" fill="none"/>
    </g>
    <g id="Ellipse_20-5" data-name="Ellipse 20" transform="translate(410.564 1272.894)" fill="none" stroke="#c59069" stroke-width="1">
      <circle cx="3.5" cy="3.5" r="3.5" stroke="none"/>
      <circle cx="3.5" cy="3.5" r="3" fill="none"/>
    </g>
    <g id="Ellipse_20-6" data-name="Ellipse 20" transform="translate(310.564 1291.894)" fill="none" stroke="#c59069" stroke-width="1">
      <circle cx="3.5" cy="3.5" r="3.5" stroke="none"/>
      <circle cx="3.5" cy="3.5" r="3" fill="none"/>
    </g>
    <g id="Ellipse_20-7" data-name="Ellipse 20" transform="translate(335.564 1291.894)" fill="none" stroke="#c59069" stroke-width="1">
      <circle cx="3.5" cy="3.5" r="3.5" stroke="none"/>
      <circle cx="3.5" cy="3.5" r="3" fill="none"/>
    </g>
    <g id="Ellipse_20-8" data-name="Ellipse 20" transform="translate(360.564 1291.894)" fill="none" stroke="#c59069" stroke-width="1">
      <circle cx="3.5" cy="3.5" r="3.5" stroke="none"/>
      <circle cx="3.5" cy="3.5" r="3" fill="none"/>
    </g>
    <g id="Ellipse_20-9" data-name="Ellipse 20" transform="translate(385.564 1291.894)" fill="none" stroke="#c59069" stroke-width="1">
      <circle cx="3.5" cy="3.5" r="3.5" stroke="none"/>
      <circle cx="3.5" cy="3.5" r="3" fill="none"/>
    </g>
    <g id="Ellipse_20-10" data-name="Ellipse 20" transform="translate(410.564 1291.894)" fill="none" stroke="#c59069" stroke-width="1">
      <circle cx="3.5" cy="3.5" r="3.5" stroke="none"/>
      <circle cx="3.5" cy="3.5" r="3" fill="none"/>
    </g>
    <g id="Ellipse_20-11" data-name="Ellipse 20" transform="translate(310.564 1310.894)" fill="none" stroke="#c59069" stroke-width="1">
      <circle cx="3.5" cy="3.5" r="3.5" stroke="none"/>
      <circle cx="3.5" cy="3.5" r="3" fill="none"/>
    </g>
    <g id="Ellipse_20-12" data-name="Ellipse 20" transform="translate(335.564 1310.894)" fill="none" stroke="#c59069" stroke-width="1">
      <circle cx="3.5" cy="3.5" r="3.5" stroke="none"/>
      <circle cx="3.5" cy="3.5" r="3" fill="none"/>
    </g>
    <g id="Ellipse_20-13" data-name="Ellipse 20" transform="translate(360.564 1310.894)" fill="none" stroke="#c59069" stroke-width="1">
      <circle cx="3.5" cy="3.5" r="3.5" stroke="none"/>
      <circle cx="3.5" cy="3.5" r="3" fill="none"/>
    </g>
    <g id="Ellipse_20-14" data-name="Ellipse 20" transform="translate(385.564 1310.894)" fill="none" stroke="#c59069" stroke-width="1">
      <circle cx="3.5" cy="3.5" r="3.5" stroke="none"/>
      <circle cx="3.5" cy="3.5" r="3" fill="none"/>
    </g>
    <g id="Ellipse_20-15" data-name="Ellipse 20" transform="translate(410.564 1310.894)" fill="none" stroke="#c59069" stroke-width="1">
      <circle cx="3.5" cy="3.5" r="3.5" stroke="none"/>
      <circle cx="3.5" cy="3.5" r="3" fill="none"/>
    </g>
  </g>
</svg>
