<svg xmlns="http://www.w3.org/2000/svg" width="102" height="102" viewBox="0 0 102 102">
  <circle id="Ellipse_20" data-name="Ellipse 20" cx="1.5" cy="1.5" r="1.5" fill="#c59069"/>
  <circle id="Ellipse_20-2" data-name="Ellipse 20" cx="1.5" cy="1.5" r="1.5" transform="translate(11)" fill="#c59069"/>
  <circle id="Ellipse_20-3" data-name="Ellipse 20" cx="1.5" cy="1.5" r="1.5" transform="translate(22)" fill="#c59069"/>
  <circle id="Ellipse_20-4" data-name="Ellipse 20" cx="1.5" cy="1.5" r="1.5" transform="translate(33)" fill="#c59069"/>
  <circle id="Ellipse_20-5" data-name="Ellipse 20" cx="1.5" cy="1.5" r="1.5" transform="translate(44)" fill="#c59069"/>
  <circle id="Ellipse_20-6" data-name="Ellipse 20" cx="1.5" cy="1.5" r="1.5" transform="translate(55)" fill="#c59069"/>
  <circle id="Ellipse_20-7" data-name="Ellipse 20" cx="1.5" cy="1.5" r="1.5" transform="translate(66)" fill="#c59069"/>
  <circle id="Ellipse_20-8" data-name="Ellipse 20" cx="1.5" cy="1.5" r="1.5" transform="translate(77)" fill="#c59069"/>
  <circle id="Ellipse_20-9" data-name="Ellipse 20" cx="1.5" cy="1.5" r="1.5" transform="translate(88)" fill="#c59069"/>
  <circle id="Ellipse_20-10" data-name="Ellipse 20" cx="1.5" cy="1.5" r="1.5" transform="translate(99)" fill="#c59069"/>
  <circle id="Ellipse_20-11" data-name="Ellipse 20" cx="1.5" cy="1.5" r="1.5" transform="translate(0 11)" fill="#c59069"/>
  <circle id="Ellipse_20-12" data-name="Ellipse 20" cx="1.5" cy="1.5" r="1.5" transform="translate(11 11)" fill="#c59069"/>
  <circle id="Ellipse_20-13" data-name="Ellipse 20" cx="1.5" cy="1.5" r="1.5" transform="translate(22 11)" fill="#c59069"/>
  <circle id="Ellipse_20-14" data-name="Ellipse 20" cx="1.5" cy="1.5" r="1.5" transform="translate(33 11)" fill="#c59069"/>
  <circle id="Ellipse_20-15" data-name="Ellipse 20" cx="1.5" cy="1.5" r="1.5" transform="translate(44 11)" fill="#c59069"/>
  <circle id="Ellipse_20-16" data-name="Ellipse 20" cx="1.5" cy="1.5" r="1.5" transform="translate(55 11)" fill="#c59069"/>
  <circle id="Ellipse_20-17" data-name="Ellipse 20" cx="1.5" cy="1.5" r="1.5" transform="translate(66 11)" fill="#c59069"/>
  <circle id="Ellipse_20-18" data-name="Ellipse 20" cx="1.5" cy="1.5" r="1.5" transform="translate(77 11)" fill="#c59069"/>
  <circle id="Ellipse_20-19" data-name="Ellipse 20" cx="1.5" cy="1.5" r="1.5" transform="translate(88 11)" fill="#c59069"/>
  <circle id="Ellipse_20-20" data-name="Ellipse 20" cx="1.5" cy="1.5" r="1.5" transform="translate(99 11)" fill="#c59069"/>
  <circle id="Ellipse_20-21" data-name="Ellipse 20" cx="1.5" cy="1.5" r="1.5" transform="translate(0 22)" fill="#c59069"/>
  <circle id="Ellipse_20-22" data-name="Ellipse 20" cx="1.5" cy="1.5" r="1.5" transform="translate(11 22)" fill="#c59069"/>
  <circle id="Ellipse_20-23" data-name="Ellipse 20" cx="1.5" cy="1.5" r="1.5" transform="translate(22 22)" fill="#c59069"/>
  <circle id="Ellipse_20-24" data-name="Ellipse 20" cx="1.5" cy="1.5" r="1.5" transform="translate(33 22)" fill="#c59069"/>
  <circle id="Ellipse_20-25" data-name="Ellipse 20" cx="1.5" cy="1.5" r="1.5" transform="translate(44 22)" fill="#c59069"/>
  <circle id="Ellipse_20-26" data-name="Ellipse 20" cx="1.5" cy="1.5" r="1.5" transform="translate(55 22)" fill="#c59069"/>
  <circle id="Ellipse_20-27" data-name="Ellipse 20" cx="1.5" cy="1.5" r="1.5" transform="translate(66 22)" fill="#c59069"/>
  <circle id="Ellipse_20-28" data-name="Ellipse 20" cx="1.5" cy="1.5" r="1.5" transform="translate(77 22)" fill="#c59069"/>
  <circle id="Ellipse_20-29" data-name="Ellipse 20" cx="1.5" cy="1.5" r="1.5" transform="translate(88 22)" fill="#c59069"/>
  <circle id="Ellipse_20-30" data-name="Ellipse 20" cx="1.5" cy="1.5" r="1.5" transform="translate(99 22)" fill="#c59069"/>
  <circle id="Ellipse_20-31" data-name="Ellipse 20" cx="1.5" cy="1.5" r="1.5" transform="translate(0 33)" fill="#c59069"/>
  <circle id="Ellipse_20-32" data-name="Ellipse 20" cx="1.5" cy="1.5" r="1.5" transform="translate(11 33)" fill="#c59069"/>
  <circle id="Ellipse_20-33" data-name="Ellipse 20" cx="1.5" cy="1.5" r="1.5" transform="translate(22 33)" fill="#c59069"/>
  <circle id="Ellipse_20-34" data-name="Ellipse 20" cx="1.5" cy="1.5" r="1.5" transform="translate(33 33)" fill="#c59069"/>
  <circle id="Ellipse_20-35" data-name="Ellipse 20" cx="1.5" cy="1.5" r="1.5" transform="translate(44 33)" fill="#c59069"/>
  <circle id="Ellipse_20-36" data-name="Ellipse 20" cx="1.5" cy="1.5" r="1.5" transform="translate(55 33)" fill="#c59069"/>
  <circle id="Ellipse_20-37" data-name="Ellipse 20" cx="1.5" cy="1.5" r="1.5" transform="translate(66 33)" fill="#c59069"/>
  <circle id="Ellipse_20-38" data-name="Ellipse 20" cx="1.5" cy="1.5" r="1.5" transform="translate(77 33)" fill="#c59069"/>
  <circle id="Ellipse_20-39" data-name="Ellipse 20" cx="1.5" cy="1.5" r="1.5" transform="translate(88 33)" fill="#c59069"/>
  <circle id="Ellipse_20-40" data-name="Ellipse 20" cx="1.5" cy="1.5" r="1.5" transform="translate(99 33)" fill="#c59069"/>
  <circle id="Ellipse_20-41" data-name="Ellipse 20" cx="1.5" cy="1.5" r="1.5" transform="translate(0 44)" fill="#c59069"/>
  <circle id="Ellipse_20-42" data-name="Ellipse 20" cx="1.5" cy="1.5" r="1.5" transform="translate(11 44)" fill="#c59069"/>
  <circle id="Ellipse_20-43" data-name="Ellipse 20" cx="1.5" cy="1.5" r="1.5" transform="translate(22 44)" fill="#c59069"/>
  <circle id="Ellipse_20-44" data-name="Ellipse 20" cx="1.5" cy="1.5" r="1.5" transform="translate(33 44)" fill="#c59069"/>
  <circle id="Ellipse_20-45" data-name="Ellipse 20" cx="1.5" cy="1.5" r="1.5" transform="translate(44 44)" fill="#c59069"/>
  <circle id="Ellipse_20-46" data-name="Ellipse 20" cx="1.5" cy="1.5" r="1.5" transform="translate(55 44)" fill="#c59069"/>
  <circle id="Ellipse_20-47" data-name="Ellipse 20" cx="1.5" cy="1.5" r="1.5" transform="translate(66 44)" fill="#c59069"/>
  <circle id="Ellipse_20-48" data-name="Ellipse 20" cx="1.5" cy="1.5" r="1.5" transform="translate(77 44)" fill="#c59069"/>
  <circle id="Ellipse_20-49" data-name="Ellipse 20" cx="1.5" cy="1.5" r="1.5" transform="translate(88 44)" fill="#c59069"/>
  <circle id="Ellipse_20-50" data-name="Ellipse 20" cx="1.5" cy="1.5" r="1.5" transform="translate(99 44)" fill="#c59069"/>
  <circle id="Ellipse_20-51" data-name="Ellipse 20" cx="1.5" cy="1.5" r="1.5" transform="translate(0 55)" fill="#c59069"/>
  <circle id="Ellipse_20-52" data-name="Ellipse 20" cx="1.5" cy="1.5" r="1.5" transform="translate(11 55)" fill="#c59069"/>
  <circle id="Ellipse_20-53" data-name="Ellipse 20" cx="1.5" cy="1.5" r="1.5" transform="translate(22 55)" fill="#c59069"/>
  <circle id="Ellipse_20-54" data-name="Ellipse 20" cx="1.5" cy="1.5" r="1.5" transform="translate(33 55)" fill="#c59069"/>
  <circle id="Ellipse_20-55" data-name="Ellipse 20" cx="1.5" cy="1.5" r="1.5" transform="translate(44 55)" fill="#c59069"/>
  <circle id="Ellipse_20-56" data-name="Ellipse 20" cx="1.5" cy="1.5" r="1.5" transform="translate(55 55)" fill="#c59069"/>
  <circle id="Ellipse_20-57" data-name="Ellipse 20" cx="1.5" cy="1.5" r="1.5" transform="translate(66 55)" fill="#c59069"/>
  <circle id="Ellipse_20-58" data-name="Ellipse 20" cx="1.5" cy="1.5" r="1.5" transform="translate(77 55)" fill="#c59069"/>
  <circle id="Ellipse_20-59" data-name="Ellipse 20" cx="1.5" cy="1.5" r="1.5" transform="translate(88 55)" fill="#c59069"/>
  <circle id="Ellipse_20-60" data-name="Ellipse 20" cx="1.5" cy="1.5" r="1.5" transform="translate(99 55)" fill="#c59069"/>
  <circle id="Ellipse_20-61" data-name="Ellipse 20" cx="1.5" cy="1.5" r="1.5" transform="translate(0 66)" fill="#c59069"/>
  <circle id="Ellipse_20-62" data-name="Ellipse 20" cx="1.5" cy="1.5" r="1.5" transform="translate(11 66)" fill="#c59069"/>
  <circle id="Ellipse_20-63" data-name="Ellipse 20" cx="1.5" cy="1.5" r="1.5" transform="translate(22 66)" fill="#c59069"/>
  <circle id="Ellipse_20-64" data-name="Ellipse 20" cx="1.5" cy="1.5" r="1.5" transform="translate(33 66)" fill="#c59069"/>
  <circle id="Ellipse_20-65" data-name="Ellipse 20" cx="1.5" cy="1.5" r="1.5" transform="translate(44 66)" fill="#c59069"/>
  <circle id="Ellipse_20-66" data-name="Ellipse 20" cx="1.5" cy="1.5" r="1.5" transform="translate(55 66)" fill="#c59069"/>
  <circle id="Ellipse_20-67" data-name="Ellipse 20" cx="1.5" cy="1.5" r="1.5" transform="translate(66 66)" fill="#c59069"/>
  <circle id="Ellipse_20-68" data-name="Ellipse 20" cx="1.5" cy="1.5" r="1.5" transform="translate(77 66)" fill="#c59069"/>
  <circle id="Ellipse_20-69" data-name="Ellipse 20" cx="1.5" cy="1.5" r="1.5" transform="translate(88 66)" fill="#c59069"/>
  <circle id="Ellipse_20-70" data-name="Ellipse 20" cx="1.5" cy="1.5" r="1.5" transform="translate(99 66)" fill="#c59069"/>
  <circle id="Ellipse_20-71" data-name="Ellipse 20" cx="1.5" cy="1.5" r="1.5" transform="translate(0 77)" fill="#c59069"/>
  <circle id="Ellipse_20-72" data-name="Ellipse 20" cx="1.5" cy="1.5" r="1.5" transform="translate(11 77)" fill="#c59069"/>
  <circle id="Ellipse_20-73" data-name="Ellipse 20" cx="1.5" cy="1.5" r="1.5" transform="translate(22 77)" fill="#c59069"/>
  <circle id="Ellipse_20-74" data-name="Ellipse 20" cx="1.5" cy="1.5" r="1.5" transform="translate(33 77)" fill="#c59069"/>
  <circle id="Ellipse_20-75" data-name="Ellipse 20" cx="1.5" cy="1.5" r="1.5" transform="translate(44 77)" fill="#c59069"/>
  <circle id="Ellipse_20-76" data-name="Ellipse 20" cx="1.5" cy="1.5" r="1.5" transform="translate(55 77)" fill="#c59069"/>
  <circle id="Ellipse_20-77" data-name="Ellipse 20" cx="1.5" cy="1.5" r="1.5" transform="translate(66 77)" fill="#c59069"/>
  <circle id="Ellipse_20-78" data-name="Ellipse 20" cx="1.5" cy="1.5" r="1.5" transform="translate(77 77)" fill="#c59069"/>
  <circle id="Ellipse_20-79" data-name="Ellipse 20" cx="1.5" cy="1.5" r="1.5" transform="translate(88 77)" fill="#c59069"/>
  <circle id="Ellipse_20-80" data-name="Ellipse 20" cx="1.5" cy="1.5" r="1.5" transform="translate(99 77)" fill="#c59069"/>
  <circle id="Ellipse_20-81" data-name="Ellipse 20" cx="1.5" cy="1.5" r="1.5" transform="translate(0 88)" fill="#c59069"/>
  <circle id="Ellipse_20-82" data-name="Ellipse 20" cx="1.5" cy="1.5" r="1.5" transform="translate(11 88)" fill="#c59069"/>
  <circle id="Ellipse_20-83" data-name="Ellipse 20" cx="1.5" cy="1.5" r="1.5" transform="translate(22 88)" fill="#c59069"/>
  <circle id="Ellipse_20-84" data-name="Ellipse 20" cx="1.5" cy="1.5" r="1.5" transform="translate(33 88)" fill="#c59069"/>
  <circle id="Ellipse_20-85" data-name="Ellipse 20" cx="1.5" cy="1.5" r="1.5" transform="translate(44 88)" fill="#c59069"/>
  <circle id="Ellipse_20-86" data-name="Ellipse 20" cx="1.5" cy="1.5" r="1.5" transform="translate(55 88)" fill="#c59069"/>
  <circle id="Ellipse_20-87" data-name="Ellipse 20" cx="1.5" cy="1.5" r="1.5" transform="translate(66 88)" fill="#c59069"/>
  <circle id="Ellipse_20-88" data-name="Ellipse 20" cx="1.5" cy="1.5" r="1.5" transform="translate(77 88)" fill="#c59069"/>
  <circle id="Ellipse_20-89" data-name="Ellipse 20" cx="1.5" cy="1.5" r="1.5" transform="translate(88 88)" fill="#c59069"/>
  <circle id="Ellipse_20-90" data-name="Ellipse 20" cx="1.5" cy="1.5" r="1.5" transform="translate(99 88)" fill="#c59069"/>
  <circle id="Ellipse_20-91" data-name="Ellipse 20" cx="1.5" cy="1.5" r="1.5" transform="translate(0 99)" fill="#c59069"/>
  <circle id="Ellipse_20-92" data-name="Ellipse 20" cx="1.5" cy="1.5" r="1.5" transform="translate(11 99)" fill="#c59069"/>
  <circle id="Ellipse_20-93" data-name="Ellipse 20" cx="1.5" cy="1.5" r="1.5" transform="translate(22 99)" fill="#c59069"/>
  <circle id="Ellipse_20-94" data-name="Ellipse 20" cx="1.5" cy="1.5" r="1.5" transform="translate(33 99)" fill="#c59069"/>
  <circle id="Ellipse_20-95" data-name="Ellipse 20" cx="1.5" cy="1.5" r="1.5" transform="translate(44 99)" fill="#c59069"/>
  <circle id="Ellipse_20-96" data-name="Ellipse 20" cx="1.5" cy="1.5" r="1.5" transform="translate(55 99)" fill="#c59069"/>
  <circle id="Ellipse_20-97" data-name="Ellipse 20" cx="1.5" cy="1.5" r="1.5" transform="translate(66 99)" fill="#c59069"/>
  <circle id="Ellipse_20-98" data-name="Ellipse 20" cx="1.5" cy="1.5" r="1.5" transform="translate(77 99)" fill="#c59069"/>
  <circle id="Ellipse_20-99" data-name="Ellipse 20" cx="1.5" cy="1.5" r="1.5" transform="translate(88 99)" fill="#c59069"/>
  <circle id="Ellipse_20-100" data-name="Ellipse 20" cx="1.5" cy="1.5" r="1.5" transform="translate(99 99)" fill="#c59069"/>
</svg>
