<svg xmlns="http://www.w3.org/2000/svg" width="36.345" height="42.48" viewBox="0 0 36.345 42.48">
  <g id="logo" transform="translate(11264.404 3734.185)">
    <path id="Path_23" data-name="Path 23" d="M14.679,0V-11.382L9.765-2.625H8.61L3.675-11.382V0H1.785V-14.91h2l5.4,9.681L14.6-14.91h1.974V0Z" transform="translate(-11255 -3705)" fill="#456345"/>
    <path id="Path_22" data-name="Path 22" d="M22.243.3A17.069,17.069,0,0,1,14.4-1.534,20.659,20.659,0,0,1,8.142-6.4a22.409,22.409,0,0,1-4.1-6.844A21.686,21.686,0,0,1,2.6-21,22.572,22.572,0,0,1,4.012-28.94a21.81,21.81,0,0,1,4.012-6.785,19.432,19.432,0,0,1,6.136-4.72,17.277,17.277,0,0,1,7.729-1.741q6.254,0,10.118,2.567a16.839,16.839,0,0,1,5.871,6.578L35.4-31.565a13.47,13.47,0,0,0-5.635-5.988,16.7,16.7,0,0,0-7.936-1.859A14.367,14.367,0,0,0,15.1-37.849,16.05,16.05,0,0,0,9.971-33.66,19.1,19.1,0,0,0,6.726-27.73a20.978,20.978,0,0,0-1.121,6.785,19.027,19.027,0,0,0,1.3,7.021,19.648,19.648,0,0,0,3.6,5.9,16.9,16.9,0,0,0,5.369,4.071A14.921,14.921,0,0,0,22.42-2.478a15.693,15.693,0,0,0,7.67-1.977,23.048,23.048,0,0,0,6.9-6.225v3.363Q30.739.3,22.243.3Zm14.1-18.231h-9.5v-2.419h12.1V0h-2.6Z" transform="translate(-11267 -3692)" fill="#456345"/>
  </g>
</svg>
